<svg width="34" height="35" viewBox="0 0 34 35" fill="none" xmlns="http://www.w3.org/2000/svg">
<g clip-path="url(#clip0_150_87)">
<g clip-path="url(#clip1_150_87)">
<path d="M24.32 10.7389C24.0617 10.4786 23.6413 10.4769 23.3809 10.7351C23.1206 10.9934 23.1189 11.4139 23.3772 11.6743L23.3812 11.6784C23.5105 11.8088 23.6799 11.8737 23.8496 11.8737C24.0188 11.8737 24.1883 11.809 24.3183 11.6801C24.5787 11.4218 24.5784 10.9993 24.32 10.7389Z" fill="white"/>
<path d="M32.3057 18.7247L26.138 12.557C25.8787 12.2977 25.4582 12.2977 25.1989 12.557C24.9395 12.8163 24.9395 13.2368 25.1989 13.4962L30.0951 18.3924H18.4193C17.4506 18.3924 16.6627 17.6044 16.6627 16.6358V4.96003L21.3897 9.68696C21.6491 9.94621 22.0695 9.94621 22.3289 9.68696C22.5882 9.42765 22.5882 9.00716 22.3289 8.74778L16.3304 2.74937C16.0711 2.49012 15.6506 2.49012 15.3913 2.74937L4.80484 13.3361C4.54552 13.5954 4.54552 14.0159 4.80484 14.2752L20.7801 30.2505C20.9046 30.375 21.0736 30.445 21.2497 30.445C21.4258 30.445 21.5947 30.375 21.7192 30.2505L32.3058 19.6638C32.4303 19.5393 32.5003 19.3704 32.5003 19.1943C32.5002 19.0182 32.4302 18.8492 32.3057 18.7247ZM15.3347 4.68438V13.1416H6.87751L15.3347 4.68438ZM20.5856 28.1776L6.87751 14.4697H15.3347V16.6358C15.3347 18.3367 16.7185 19.7205 18.4194 19.7205H20.5856V28.1776ZM21.9137 28.1777V19.7205H30.3708L21.9137 28.1777Z" fill="white"/>
<path d="M3.05753 16.3671H-0.835938C-1.2027 16.3671 -1.5 16.6645 -1.5 17.0312C-1.5 17.3979 -1.2027 17.6953 -0.835938 17.6953H3.05753C3.42429 17.6953 3.72159 17.398 3.72159 17.0312C3.72159 16.6645 3.42429 16.3671 3.05753 16.3671Z" fill="white"/>
<path d="M5.0373 16.3671H5.02734C4.66058 16.3671 4.36328 16.6645 4.36328 17.0312C4.36328 17.3979 4.66058 17.6953 5.02734 17.6953H5.0373C5.40407 17.6953 5.70137 17.3979 5.70137 17.0312C5.70137 16.6645 5.40407 16.3671 5.0373 16.3671Z" fill="white"/>
<path d="M1.29024 9.39465H-0.834961C-1.20172 9.39465 -1.49902 9.69202 -1.49902 10.0587C-1.49902 10.4254 -1.20172 10.7228 -0.834961 10.7228H1.29024C1.657 10.7228 1.9543 10.4254 1.9543 10.0587C1.9543 9.69202 1.657 9.39465 1.29024 9.39465Z" fill="white"/>
<path d="M5.97149 9.39465H3.45947C3.09271 9.39465 2.79541 9.69202 2.79541 10.0587C2.79541 10.4254 3.09271 10.7228 3.45947 10.7228H5.97149C6.33825 10.7228 6.63555 10.4254 6.63555 10.0587C6.63555 9.69202 6.33825 9.39465 5.97149 9.39465Z" fill="white"/>
<path d="M7.41693 20.0194H3.69824C3.33148 20.0194 3.03418 20.3168 3.03418 20.6835C3.03418 21.0502 3.33148 21.3475 3.69824 21.3475H7.41693C7.78369 21.3475 8.08099 21.0502 8.08099 20.6835C8.08099 20.3168 7.78362 20.0194 7.41693 20.0194Z" fill="white"/>
<path d="M10.3207 24.2693H0.957519C0.590758 24.2693 0.293457 24.5667 0.293457 24.9333C0.293457 25.3 0.590758 25.5974 0.957519 25.5974H10.3207C10.6875 25.5974 10.9848 25.3 10.9848 24.9333C10.9848 24.5667 10.6875 24.2693 10.3207 24.2693Z" fill="white"/>
</g>
</g>
<defs>
<clipPath id="clip0_150_87">
<rect width="34" height="34" fill="white" transform="translate(0 0.695251)"/>
</clipPath>
<clipPath id="clip1_150_87">
<rect width="34" height="34" fill="white" transform="translate(-1.5 -0.5)"/>
</clipPath>
</defs>
</svg>
