<svg width="119" height="117" viewBox="0 0 119 117" fill="none" xmlns="http://www.w3.org/2000/svg">
<path d="M4.14651 94.2332L0.164001 79.9223H3.75479L6.57519 89.9451L9.57839 79.9223H12.9211L15.624 89.9973L18.6663 79.9223H21.3562L17.0995 94.2332H13.3912L10.7797 84.4189L7.85482 94.2332H4.14651Z" fill="white"/>
<path d="M31.7238 92.6952C30.4354 93.9377 29.0557 94.559 27.5846 94.559C26.331 94.559 25.3126 94.1767 24.5291 93.4121C23.7457 92.6474 23.354 91.6569 23.354 90.4404C23.354 88.859 23.9851 87.6425 25.2473 86.791C26.5182 85.9308 28.3332 85.5007 30.6922 85.5007H31.7238V84.1973C31.7238 82.7115 30.875 81.9686 29.1776 81.9686C27.6716 81.9686 26.1482 82.3943 24.6075 83.2459V80.587C26.3572 79.9267 28.0894 79.5965 29.8043 79.5965C33.5561 79.5965 35.4321 81.0866 35.4321 84.067V90.4013C35.4321 91.5222 35.7933 92.0826 36.5158 92.0826C36.6464 92.0826 36.8161 92.0653 37.0251 92.0305L37.1165 94.1941C36.2982 94.4374 35.5757 94.559 34.9489 94.559C33.3646 94.559 32.3462 93.9377 31.8935 92.6952H31.7238ZM31.7238 90.6229V87.7164H30.8097C28.3114 87.7164 27.0623 88.4984 27.0623 90.0624C27.0623 90.5925 27.2407 91.0399 27.5976 91.4049C27.9632 91.7611 28.4115 91.9393 28.9425 91.9393C29.8478 91.9393 30.7749 91.5005 31.7238 90.6229Z" fill="white"/>
<path d="M47.8105 94.155C46.8878 94.4243 46.1609 94.559 45.6299 94.559C42.2785 94.559 40.6028 92.995 40.6028 89.8669V82.3335H38.9967V79.9223H40.6028V77.5111L44.4678 77.068V79.9223H47.5363V82.3335H44.4678V89.3586C44.4678 91.1138 45.1859 91.9914 46.6223 91.9914C46.953 91.9914 47.3491 91.9306 47.8105 91.8089V94.155Z" fill="white"/>
<path d="M62.931 93.7509C61.0942 94.2896 59.3532 94.559 57.708 94.559C55.3141 94.559 53.4252 93.8813 52.0411 92.5258C50.657 91.1703 49.965 89.3195 49.965 86.9735C49.965 84.7578 50.5961 82.9765 51.8583 81.6297C53.1292 80.2742 54.8049 79.5965 56.8854 79.5965C58.9833 79.5965 60.5153 80.2568 61.4816 81.5776C62.4478 82.8983 62.931 84.988 62.931 87.8467H54.0389C54.3 90.5751 55.8016 91.9393 58.5437 91.9393C59.8407 91.9393 61.3031 91.6395 62.931 91.0399V93.7509ZM53.9866 85.6701H59.1313C59.1313 83.2285 58.3435 82.0077 56.7679 82.0077C55.1662 82.0077 54.2391 83.2285 53.9866 85.6701Z" fill="white"/>
<path d="M66.9265 94.2332V79.9223H70.7915V82.6203C71.7926 80.6044 73.316 79.5965 75.3616 79.5965C75.6054 79.5965 75.8447 79.6225 76.0798 79.6747V83.1155C75.5314 82.9157 75.0221 82.8158 74.5521 82.8158C73.0113 82.8158 71.7578 83.5934 70.7915 85.1488V94.2332H66.9265Z" fill="white"/>
<path d="M79.5008 94.2332V82.3335H77.5292V79.9223H79.5008V78.8927C79.5008 75.1824 81.2636 73.3273 84.7891 73.3273C85.9294 73.3273 87.1046 73.4924 88.3146 73.8226V76.4293C87.2177 75.9688 86.2341 75.7385 85.3636 75.7385C84.0317 75.7385 83.3658 76.7421 83.3658 78.7493V79.9223H86.9958V82.3335H83.3658V94.2332H79.5008Z" fill="white"/>
<path d="M97.2197 92.6952C95.9314 93.9377 94.5517 94.559 93.0805 94.559C91.827 94.559 90.8085 94.1767 90.0251 93.4121C89.2416 92.6474 88.8499 91.6569 88.8499 90.4404C88.8499 88.859 89.481 87.6425 90.7432 86.791C92.0142 85.9308 93.8291 85.5007 96.1882 85.5007H97.2197V84.1973C97.2197 82.7115 96.371 81.9686 94.6735 81.9686C93.1676 81.9686 91.6442 82.3943 90.1034 83.2459V80.587C91.8531 79.9267 93.5854 79.5965 95.3003 79.5965C99.0521 79.5965 100.928 81.0866 100.928 84.067V90.4013C100.928 91.5222 101.289 92.0826 102.012 92.0826C102.142 92.0826 102.312 92.0653 102.521 92.0305L102.612 94.1941C101.794 94.4374 101.072 94.559 100.445 94.559C98.8606 94.559 97.8421 93.9377 97.3895 92.6952H97.2197ZM97.2197 90.6229V87.7164H96.3057C93.8074 87.7164 92.5582 88.4984 92.5582 90.0624C92.5582 90.5925 92.7367 91.0399 93.0936 91.4049C93.4592 91.7611 93.9075 91.9393 94.4385 91.9393C95.3438 91.9393 96.2709 91.5005 97.2197 90.6229Z" fill="white"/>
<path d="M105.916 94.2332V73.6532H109.781V94.2332H105.916Z" fill="white"/>
<path d="M114.612 94.2332V73.6532H118.477V94.2332H114.612Z" fill="white"/>
<path d="M71.5489 113.177V111.316C70.8176 112.709 69.7147 113.405 68.2401 113.405C67.0458 113.405 66.1043 112.97 65.4158 112.101C64.7333 111.231 64.3921 110.042 64.3921 108.533C64.3921 106.885 64.779 105.559 65.5529 104.556C66.3329 103.552 67.3566 103.05 68.624 103.05C69.8 103.05 70.775 103.5 71.5489 104.4V98.7712H73.3586V113.177H71.5489ZM71.5489 105.632C70.6166 104.811 69.733 104.4 68.8982 104.4C67.1738 104.4 66.3115 105.717 66.3115 108.351C66.3115 110.668 67.0793 111.827 68.6149 111.827C69.6142 111.827 70.5922 111.283 71.5489 110.194V105.632Z" fill="#10DEB2"/>
<path d="M76.969 113.177V103.269H78.7696V113.177H76.969ZM76.969 101.472V99.6745H78.7696V101.472H76.969Z" fill="#10DEB2"/>
<path d="M82.4165 116.471L82.6268 114.911C83.6687 115.403 84.6955 115.65 85.707 115.65C87.7361 115.65 88.7507 114.576 88.7507 112.429V110.869C88.0865 112.256 86.9958 112.949 85.4785 112.949C84.2903 112.949 83.3458 112.517 82.645 111.654C81.9443 110.79 81.5939 109.625 81.5939 108.159C81.5939 106.651 81.993 105.422 82.7913 104.473C83.5895 103.525 84.6224 103.05 85.8898 103.05C86.9988 103.05 87.9524 103.5 88.7507 104.4V103.269H90.5604V110.477C90.5604 112.028 90.4782 113.174 90.3137 113.916C90.1552 114.664 89.8536 115.276 89.4088 115.75C88.6227 116.583 87.401 117 85.7436 117C84.5858 117 83.4768 116.824 82.4165 116.471ZM88.7507 109.747V105.632C87.9585 104.811 87.0963 104.4 86.164 104.4C85.3353 104.4 84.6863 104.732 84.2172 105.395C83.748 106.058 83.5134 106.967 83.5134 108.123C83.5134 110.294 84.2781 111.38 85.8075 111.38C86.8495 111.38 87.8306 110.836 88.7507 109.747Z" fill="#10DEB2"/>
<path d="M94.0611 113.177V103.269H95.8617V113.177H94.0611ZM94.0611 101.472V99.6745H95.8617V101.472H94.0611Z" fill="#10DEB2"/>
<path d="M102.452 113.405C101.538 113.405 100.825 113.144 100.313 112.621C99.8012 112.098 99.5452 111.371 99.5452 110.44V104.619H98.3022V103.269H99.5452V101.472L101.346 101.298V103.269H103.942V104.619H101.346V110.112C101.346 111.407 101.906 112.055 103.028 112.055C103.265 112.055 103.555 112.016 103.896 111.936V113.177C103.341 113.329 102.86 113.405 102.452 113.405Z" fill="#10DEB2"/>
<path d="M111.592 111.918C110.513 112.91 109.475 113.405 108.475 113.405C107.653 113.405 106.97 113.15 106.428 112.639C105.885 112.122 105.614 111.471 105.614 110.687C105.614 109.604 106.068 108.774 106.976 108.196C107.89 107.612 109.197 107.32 110.897 107.32H111.327V106.125C111.327 104.975 110.736 104.4 109.554 104.4C108.603 104.4 107.576 104.692 106.474 105.276V103.789C107.686 103.297 108.823 103.05 109.883 103.05C110.992 103.05 111.808 103.3 112.332 103.798C112.862 104.297 113.128 105.073 113.128 106.125V110.614C113.128 111.641 113.444 112.155 114.078 112.155C114.157 112.155 114.273 112.143 114.425 112.119L114.553 113.113C114.145 113.308 113.694 113.405 113.201 113.405C112.36 113.405 111.824 112.91 111.592 111.918ZM111.327 110.942V108.378L110.724 108.36C109.737 108.36 108.938 108.549 108.329 108.926C107.72 109.297 107.415 109.786 107.415 110.395C107.415 110.826 107.567 111.191 107.872 111.489C108.177 111.787 108.548 111.936 108.987 111.936C109.737 111.936 110.517 111.605 111.327 110.942Z" fill="#10DEB2"/>
<path d="M116.82 113.177V98.7712H118.621V113.177H116.82Z" fill="#10DEB2"/>
<path d="M30.4854 0.000800782L23.2652 27.2274L0 0.000800782H30.4854Z" fill="#10DEB2"/>
<path d="M0 0.000800782L22.1955 73.4059L36.1011 55.5217L23.2652 27.2274L0 0.000800782Z" fill="#007383"/>
<path d="M39.0427 36.8368L36.1011 55.5217L23.2652 27.2274L30.4148 0L39.0427 36.8368Z" fill="#009B8B"/>
<path d="M51.6112 73.4059H22.1955L36.1011 55.5217L51.6112 73.4059Z" fill="#04606D"/>
<path d="M48.1348 0.000800782L39.0427 36.8368L71.1326 0.000800782H48.1348Z" fill="#10DEB2"/>
<path d="M51.6112 73.4059L71.1326 0.000800782L39.0427 36.5699L36.1011 55.5217L51.6112 73.4059Z" fill="#00B2A1"/>
<path d="M67.1213 73.4059L59.3278 44.188L71.1326 0.000800782L78.9352 33.3699L67.1213 73.4059Z" fill="#008D9B"/>
<path d="M88.782 0.000800782L93.6677 45.0897L67.1213 73.4059L88.782 0.000800782Z" fill="#007383"/>
<path d="M88.782 0.000800782H119L91.646 26.8425L88.782 0.000800782Z" fill="#10DEB2"/>
<path d="M67.1213 73.4059L93.6677 45.0897L96.8045 73.4059H67.1213Z" fill="#04606D"/>
<path d="M119 0.000800782L91.646 26.8425L96.8045 73.4059L119 0.000800782Z" fill="#009B8B"/>
</svg>
