<svg width="1320" height="182" viewBox="0 0 1320 182" fill="none" xmlns="http://www.w3.org/2000/svg">
<path d="M130 85.707C161.589 91.0212 240.607 95.0797 306.86 81.8588C323.389 78.5604 357.549 73.0629 380.139 85.707C390.056 92.8537 412.977 100 425.318 71.4137C440.745 35.6803 462.784 4.34485 502.454 2.14587C534.189 0.386693 559.754 14.9732 568.57 22.4864C583.262 33.2981 609.892 66.466 598.873 112.645C585.099 170.368 553.694 173.666 522.289 179.164C490.883 184.661 446.255 162.122 438.542 139.032C430.828 115.943 430.828 70.8639 455.622 48.8742C480.415 26.8844 512.804 9.84231 550.939 27.9839C589.074 46.1254 581.242 93.4035 576.834 112.645C572.427 131.886 556.999 153.326 522.289 155.525C487.578 157.724 481.517 153.326 471.049 146.179C460.58 139.032 456.172 135.734 460.029 108.796C463.886 81.8588 471.6 46.1254 511.269 41.7275C550.939 37.3295 564.713 71.4137 561.958 90.105C559.203 108.796 558.652 134.634 528.9 142.88C499.148 151.127 478.762 136.833 478.211 115.943C477.66 95.0527 485.925 62.6178 511.269 67.0157C536.614 71.4137 547.082 92.8537 533.308 108.796C519.534 124.739 494.74 115.943 498.597 98.9009C502.454 81.8588 512.371 80.2096 528.9 92.8537C545.429 105.498 566.366 98.3512 576.834 90.105C587.303 81.8588 598.873 71.4137 636.339 78.5604C673.804 85.707 712.923 116.493 783.998 90.105C855.073 63.7173 893.089 64.267 891.436 92.8537C889.784 121.44 852.869 118.692 858.378 102.199C863.888 85.707 871.602 57.6701 919.536 69.7644C967.47 81.8588 1037.99 151.676 1072.7 117.042C1107.42 82.4086 1111.27 96.7019 1139.92 96.7019C1168.57 96.7019 1179.59 88.4558 1184 84.0578" stroke="url(#paint0_linear_20_1609)" stroke-width="4" stroke-linecap="round" stroke-linejoin="round"/>
<path d="M1.4 91V76.6H7.09C7.23 76.6 7.39667 76.6067 7.59 76.62C7.78333 76.6267 7.97 76.6467 8.15 76.68C8.93 76.8 9.58333 77.0667 10.11 77.48C10.6433 77.8933 11.0433 78.4167 11.31 79.05C11.5767 79.6767 11.71 80.3733 11.71 81.14C11.71 81.9 11.5733 82.5967 11.3 83.23C11.0333 83.8567 10.6333 84.38 10.1 84.8C9.57333 85.2133 8.92333 85.48 8.15 85.6C7.97 85.6267 7.78333 85.6467 7.59 85.66C7.39667 85.6733 7.23 85.68 7.09 85.68H3.18V91H1.4ZM3.18 83.99H7.03C7.15667 83.99 7.3 83.9833 7.46 83.97C7.62667 83.9567 7.78333 83.9333 7.93 83.9C8.39 83.7933 8.76333 83.6 9.05 83.32C9.34333 83.0333 9.55667 82.7 9.69 82.32C9.82333 81.9333 9.89 81.54 9.89 81.14C9.89 80.74 9.82333 80.35 9.69 79.97C9.55667 79.5833 9.34333 79.2467 9.05 78.96C8.76333 78.6733 8.39 78.48 7.93 78.38C7.78333 78.34 7.62667 78.3167 7.46 78.31C7.3 78.2967 7.15667 78.29 7.03 78.29H3.18V83.99ZM15.7047 91V76.6H21.3947C21.5347 76.6 21.7014 76.6067 21.8947 76.62C22.088 76.6267 22.2747 76.6467 22.4547 76.68C23.2347 76.8 23.888 77.0667 24.4147 77.48C24.948 77.8933 25.348 78.4167 25.6147 79.05C25.8814 79.6767 26.0147 80.3733 26.0147 81.14C26.0147 82.2533 25.7247 83.22 25.1447 84.04C24.5647 84.8533 23.7147 85.3633 22.5947 85.57L21.9147 85.68H17.4847V91H15.7047ZM24.2747 91L21.4347 85.14L23.1947 84.6L26.3147 91H24.2747ZM17.4847 83.99H21.3347C21.4614 83.99 21.6047 83.9833 21.7647 83.97C21.9314 83.9567 22.088 83.9333 22.2347 83.9C22.6947 83.7933 23.068 83.6 23.3547 83.32C23.648 83.0333 23.8614 82.7 23.9947 82.32C24.128 81.9333 24.1947 81.54 24.1947 81.14C24.1947 80.74 24.128 80.35 23.9947 79.97C23.8614 79.5833 23.648 79.2467 23.3547 78.96C23.068 78.6733 22.6947 78.48 22.2347 78.38C22.088 78.34 21.9314 78.3167 21.7647 78.31C21.6047 78.2967 21.4614 78.29 21.3347 78.29H17.4847V83.99ZM36.4372 91.3C35.0039 91.3 33.7872 90.9833 32.7872 90.35C31.7872 89.7167 31.0239 88.8367 30.4972 87.71C29.9772 86.5833 29.7172 85.28 29.7172 83.8C29.7172 82.32 29.9772 81.0167 30.4972 79.89C31.0239 78.7633 31.7872 77.8833 32.7872 77.25C33.7872 76.6167 35.0039 76.3 36.4372 76.3C37.8772 76.3 39.0972 76.6167 40.0972 77.25C41.0972 77.8833 41.8572 78.7633 42.3772 79.89C42.8972 81.0167 43.1572 82.32 43.1572 83.8C43.1572 85.28 42.8972 86.5833 42.3772 87.71C41.8572 88.8367 41.0972 89.7167 40.0972 90.35C39.0972 90.9833 37.8772 91.3 36.4372 91.3ZM36.4372 89.6C37.5105 89.6067 38.4039 89.3667 39.1172 88.88C39.8372 88.3867 40.3739 87.7033 40.7272 86.83C41.0872 85.9567 41.2672 84.9467 41.2672 83.8C41.2672 82.6467 41.0872 81.6367 40.7272 80.77C40.3739 79.9033 39.8372 79.2267 39.1172 78.74C38.4039 78.2533 37.5105 78.0067 36.4372 78C35.3639 77.9933 34.4705 78.2333 33.7572 78.72C33.0505 79.2067 32.5172 79.8867 32.1572 80.76C31.7972 81.6333 31.6139 82.6467 31.6072 83.8C31.6005 84.9467 31.7772 85.9533 32.1372 86.82C32.4972 87.6867 33.0339 88.3667 33.7472 88.86C34.4672 89.3467 35.3639 89.5933 36.4372 89.6ZM47.1656 91V76.6H52.7756C53.6356 76.6 54.369 76.7767 54.9756 77.13C55.589 77.4833 56.0556 77.95 56.3756 78.53C56.7023 79.1033 56.8656 79.7233 56.8656 80.39C56.8656 81.17 56.6656 81.8533 56.2656 82.44C55.8656 83.0267 55.3256 83.43 54.6456 83.65L54.6256 83.16C55.5523 83.4067 56.2723 83.86 56.7856 84.52C57.299 85.18 57.5556 85.9667 57.5556 86.88C57.5556 87.72 57.3823 88.4467 57.0356 89.06C56.6956 89.6733 56.2023 90.15 55.5556 90.49C54.9156 90.83 54.1556 91 53.2756 91H47.1656ZM48.9656 89.3H52.9356C53.469 89.3 53.9456 89.2033 54.3656 89.01C54.7856 88.81 55.1156 88.53 55.3556 88.17C55.6023 87.81 55.7256 87.3767 55.7256 86.87C55.7256 86.3833 55.6156 85.9467 55.3956 85.56C55.1823 85.1733 54.879 84.8667 54.4856 84.64C54.099 84.4067 53.649 84.29 53.1356 84.29H48.9656V89.3ZM48.9656 82.61H52.7556C53.1823 82.61 53.5656 82.52 53.9056 82.34C54.2523 82.1533 54.5256 81.8933 54.7256 81.56C54.9323 81.2267 55.0356 80.8367 55.0356 80.39C55.0356 79.77 54.8256 79.2633 54.4056 78.87C53.9856 78.4767 53.4356 78.28 52.7556 78.28H48.9656V82.61ZM61.7484 91V76.6H63.5284V89.31H70.2084V91H61.7484ZM73.9 91V76.6H83V78.29H75.68V82.8H81.8V84.49H75.68V89.31H83V91H73.9ZM87.4039 91V76.6H89.0239L94.4639 88.07L99.8739 76.6H101.514V90.99H99.8239V80.51L94.9339 91H93.9839L89.0939 80.51V91H87.4039Z" fill="white"/>
<path d="M1214.51 88.3C1213.49 88.3 1212.57 88.1267 1211.75 87.78C1210.94 87.4333 1210.26 86.94 1209.73 86.3C1209.2 85.6533 1208.86 84.89 1208.7 84.01L1210.54 83.72C1210.77 84.6267 1211.26 85.3367 1211.99 85.85C1212.73 86.3567 1213.6 86.61 1214.6 86.61C1215.25 86.61 1215.83 86.51 1216.35 86.31C1216.88 86.1033 1217.29 85.81 1217.6 85.43C1217.91 85.05 1218.06 84.6 1218.06 84.08C1218.06 83.76 1218 83.4867 1217.89 83.26C1217.78 83.0267 1217.63 82.83 1217.44 82.67C1217.25 82.5033 1217.04 82.3633 1216.8 82.25C1216.56 82.1367 1216.31 82.0433 1216.05 81.97L1212.38 80.88C1211.98 80.76 1211.59 80.61 1211.22 80.43C1210.85 80.2433 1210.51 80.0133 1210.22 79.74C1209.93 79.46 1209.69 79.1267 1209.52 78.74C1209.35 78.3467 1209.26 77.8833 1209.26 77.35C1209.26 76.4967 1209.48 75.77 1209.92 75.17C1210.37 74.5633 1210.97 74.1 1211.73 73.78C1212.49 73.46 1213.35 73.3033 1214.3 73.31C1215.27 73.3167 1216.13 73.49 1216.89 73.83C1217.66 74.1633 1218.29 74.6433 1218.79 75.27C1219.3 75.8967 1219.64 76.6467 1219.81 77.52L1217.92 77.85C1217.82 77.2633 1217.6 76.76 1217.25 76.34C1216.91 75.9133 1216.48 75.5867 1215.97 75.36C1215.46 75.1267 1214.89 75.0067 1214.28 75C1213.69 74.9933 1213.16 75.0867 1212.69 75.28C1212.22 75.4733 1211.84 75.7433 1211.56 76.09C1211.28 76.43 1211.14 76.8233 1211.14 77.27C1211.14 77.71 1211.27 78.0667 1211.52 78.34C1211.77 78.6067 1212.08 78.82 1212.45 78.98C1212.82 79.1333 1213.19 79.26 1213.54 79.36L1216.28 80.15C1216.59 80.2367 1216.95 80.3567 1217.36 80.51C1217.77 80.6633 1218.17 80.88 1218.56 81.16C1218.95 81.4333 1219.27 81.8 1219.52 82.26C1219.77 82.7133 1219.9 83.2867 1219.9 83.98C1219.9 84.6733 1219.76 85.29 1219.48 85.83C1219.21 86.37 1218.82 86.8233 1218.33 87.19C1217.84 87.55 1217.26 87.8233 1216.61 88.01C1215.96 88.2033 1215.26 88.3 1214.51 88.3ZM1229.92 88.3C1228.48 88.3 1227.27 87.9833 1226.27 87.35C1225.27 86.7167 1224.5 85.8367 1223.98 84.71C1223.46 83.5833 1223.2 82.28 1223.2 80.8C1223.2 79.32 1223.46 78.0167 1223.98 76.89C1224.5 75.7633 1225.27 74.8833 1226.27 74.25C1227.27 73.6167 1228.48 73.3 1229.92 73.3C1231.36 73.3 1232.58 73.6167 1233.58 74.25C1234.58 74.8833 1235.34 75.7633 1235.86 76.89C1236.38 78.0167 1236.64 79.32 1236.64 80.8C1236.64 82.28 1236.38 83.5833 1235.86 84.71C1235.34 85.8367 1234.58 86.7167 1233.58 87.35C1232.58 87.9833 1231.36 88.3 1229.92 88.3ZM1229.92 86.6C1230.99 86.6067 1231.88 86.3667 1232.6 85.88C1233.32 85.3867 1233.85 84.7033 1234.21 83.83C1234.57 82.9567 1234.75 81.9467 1234.75 80.8C1234.75 79.6467 1234.57 78.6367 1234.21 77.77C1233.85 76.9033 1233.32 76.2267 1232.6 75.74C1231.88 75.2533 1230.99 75.0067 1229.92 75C1228.84 74.9933 1227.95 75.2333 1227.24 75.72C1226.53 76.2067 1226 76.8867 1225.64 77.76C1225.28 78.6333 1225.09 79.6467 1225.09 80.8C1225.08 81.9467 1225.26 82.9533 1225.62 83.82C1225.98 84.6867 1226.51 85.3667 1227.23 85.86C1227.95 86.3467 1228.84 86.5933 1229.92 86.6ZM1240.85 88V73.6H1242.63V86.31H1249.31V88H1240.85ZM1258.68 88.3C1257.56 88.3 1256.58 88.07 1255.73 87.61C1254.87 87.15 1254.2 86.5067 1253.72 85.68C1253.24 84.8467 1253 83.87 1253 82.75V73.61L1254.8 73.6V82.6C1254.8 83.28 1254.91 83.8733 1255.14 84.38C1255.37 84.88 1255.68 85.2967 1256.06 85.63C1256.44 85.9633 1256.85 86.2133 1257.31 86.38C1257.77 86.54 1258.22 86.62 1258.68 86.62C1259.14 86.62 1259.6 86.5367 1260.06 86.37C1260.52 86.2033 1260.93 85.9567 1261.31 85.63C1261.69 85.2967 1261.99 84.8767 1262.22 84.37C1262.44 83.8633 1262.56 83.2733 1262.56 82.6V73.6H1264.36V82.75C1264.36 83.8633 1264.11 84.8367 1263.63 85.67C1263.15 86.5033 1262.48 87.15 1261.63 87.61C1260.77 88.07 1259.79 88.3 1258.68 88.3ZM1272.87 88V75.29H1267.96V73.6H1279.56V75.29H1274.65V88H1272.87ZM1283.35 88V73.6H1285.13V88H1283.35ZM1296.05 88.3C1294.62 88.3 1293.4 87.9833 1292.4 87.35C1291.4 86.7167 1290.64 85.8367 1290.11 84.71C1289.59 83.5833 1289.33 82.28 1289.33 80.8C1289.33 79.32 1289.59 78.0167 1290.11 76.89C1290.64 75.7633 1291.4 74.8833 1292.4 74.25C1293.4 73.6167 1294.62 73.3 1296.05 73.3C1297.49 73.3 1298.71 73.6167 1299.71 74.25C1300.71 74.8833 1301.47 75.7633 1301.99 76.89C1302.51 78.0167 1302.77 79.32 1302.77 80.8C1302.77 82.28 1302.51 83.5833 1301.99 84.71C1301.47 85.8367 1300.71 86.7167 1299.71 87.35C1298.71 87.9833 1297.49 88.3 1296.05 88.3ZM1296.05 86.6C1297.12 86.6067 1298.02 86.3667 1298.73 85.88C1299.45 85.3867 1299.99 84.7033 1300.34 83.83C1300.7 82.9567 1300.88 81.9467 1300.88 80.8C1300.88 79.6467 1300.7 78.6367 1300.34 77.77C1299.99 76.9033 1299.45 76.2267 1298.73 75.74C1298.02 75.2533 1297.12 75.0067 1296.05 75C1294.98 74.9933 1294.08 75.2333 1293.37 75.72C1292.66 76.2067 1292.13 76.8867 1291.77 77.76C1291.41 78.6333 1291.23 79.6467 1291.22 80.8C1291.21 81.9467 1291.39 82.9533 1291.75 83.82C1292.11 84.6867 1292.65 85.3667 1293.36 85.86C1294.08 86.3467 1294.98 86.5933 1296.05 86.6ZM1306.78 88V73.6H1308.58L1316.09 84.85V73.6H1317.89V88H1316.09L1308.58 76.74V88H1306.78Z" fill="white"/>
<defs>
<linearGradient id="paint0_linear_20_1609" x1="130" y1="110.849" x2="1184.55" y2="90.9704" gradientUnits="userSpaceOnUse">
<stop stop-color="#10DEB2"/>
<stop offset="1" stop-color="#007383"/>
</linearGradient>
</defs>
</svg>
