<svg width="54" height="54" viewBox="0 0 54 54" fill="none" xmlns="http://www.w3.org/2000/svg">
<g clip-path="url(#clip0_118_2)">
<path d="M32.5898 20.168C32.0184 20.168 31.5547 20.6317 31.5547 21.2031C31.5547 21.7745 32.0184 22.2383 32.5898 22.2383C33.1612 22.2383 33.625 21.7745 33.625 21.2031C33.625 20.6317 33.1612 20.168 32.5898 20.168Z" fill="#10DEB2"/>
<path d="M52.2869 46.4318L38.4696 32.6146C40.7206 29.224 41.9062 25.2977 41.9062 21.2031C41.9062 9.78742 32.6188 0.5 21.2031 0.5C9.78742 0.5 0.5 9.78742 0.5 21.2031C0.5 32.6188 9.78742 41.9062 21.2031 41.9062C25.2978 41.9062 29.2241 40.7205 32.6146 38.4697L36.4338 42.2889C36.4343 42.2895 36.4348 42.29 36.4354 42.2906L46.4317 52.2869C47.2141 53.0692 48.2537 53.5 49.3594 53.5C50.465 53.5 51.5046 53.0692 52.2866 52.2872C53.0691 51.5054 53.5 50.4656 53.5 49.3594C53.5 48.2531 53.0691 47.2134 52.2869 46.4318ZM32.1278 36.2881L32.1275 36.2884C28.9323 38.6092 25.1548 39.8359 21.2031 39.8359C10.929 39.8359 2.57031 31.4773 2.57031 21.2031C2.57031 10.929 10.929 2.57031 21.2031 2.57031C31.4773 2.57031 39.8359 10.929 39.8359 21.2031C39.8359 25.1548 38.6092 28.9323 36.2882 32.1276C35.1271 33.7273 33.7274 35.1271 32.1278 36.2881ZM34.2995 37.2266C35.3709 36.3502 36.3503 35.3708 37.2266 34.2995L40.1635 37.2363C39.2703 38.2904 38.2904 39.2704 37.2363 40.1635L34.2995 37.2266ZM50.823 50.823C50.4317 51.2143 49.9119 51.4297 49.3594 51.4297C48.8068 51.4297 48.2871 51.2143 47.8958 50.823L38.7041 41.6313C39.7524 40.7317 40.7317 39.7525 41.6312 38.7042L50.8232 47.8962C51.2143 48.2868 51.4297 48.8064 51.4297 49.3594C51.4297 49.9124 51.2143 50.4319 50.823 50.823Z" fill="#10DEB2"/>
<path d="M21.2031 4.64062C12.0705 4.64062 4.64062 12.0705 4.64062 21.2031C4.64062 30.3358 12.0705 37.7656 21.2031 37.7656C30.3358 37.7656 37.7656 30.3358 37.7656 21.2031C37.7656 12.0705 30.3358 4.64062 21.2031 4.64062ZM21.2031 35.6953C13.2121 35.6953 6.71094 29.1941 6.71094 21.2031C6.71094 13.2121 13.2121 6.71094 21.2031 6.71094C29.1941 6.71094 35.6953 13.2121 35.6953 21.2031C35.6953 29.1941 29.1941 35.6953 21.2031 35.6953Z" fill="#10DEB2"/>
<path d="M32.8036 16.7595C31.9122 14.4395 30.3602 12.456 28.3152 11.0234C26.2215 9.55658 23.7621 8.78125 21.2031 8.78125C20.6315 8.78125 20.168 9.24479 20.168 9.81641C20.168 10.388 20.6315 10.8516 21.2031 10.8516C25.4575 10.8516 29.3427 13.5241 30.8711 17.5021C31.0292 17.9137 31.4215 18.1663 31.8376 18.1663C31.961 18.1663 32.0865 18.144 32.2086 18.0971C32.7422 17.8921 33.0087 17.2932 32.8036 16.7595Z" fill="#10DEB2"/>
</g>
<defs>
<clipPath id="clip0_118_2">
<rect width="53" height="53" fill="white" transform="translate(0.5 0.5)"/>
</clipPath>
</defs>
</svg>
