<svg width="34" height="34" viewBox="0 0 34 34" fill="none" xmlns="http://www.w3.org/2000/svg">
<path d="M22.1172 2.08966H9.88281C9.46234 2.09011 9.05922 2.25158 8.7619 2.53865C8.46458 2.82572 8.29734 3.21494 8.29688 3.62091V27.6834C8.29734 28.0894 8.46458 28.4786 8.7619 28.7657C9.05922 29.0527 9.46234 29.2142 9.88281 29.2147H22.1172C22.5377 29.2142 22.9408 29.0527 23.2381 28.7657C23.5354 28.4786 23.7027 28.0894 23.7031 27.6834V3.62091C23.7027 3.21494 23.5354 2.82572 23.2381 2.53865C22.9408 2.25158 22.5377 2.09011 22.1172 2.08966ZM17.6839 2.96466L17.4574 3.83966H14.5398L14.3132 2.96466H17.6839ZM22.7969 27.6834C22.7967 27.8574 22.7251 28.0243 22.5976 28.1473C22.4702 28.2703 22.2974 28.3395 22.1172 28.3397H9.88281C9.70259 28.3395 9.5298 28.2703 9.40237 28.1473C9.27493 28.0243 9.20327 27.8574 9.20312 27.6834V3.62091C9.20327 3.44691 9.27493 3.28007 9.40237 3.15703C9.5298 3.03399 9.70259 2.96481 9.88281 2.96466H13.3787L13.7463 4.3838C13.7709 4.47844 13.8276 4.56241 13.9073 4.62236C13.9871 4.68231 14.0853 4.7148 14.1864 4.71466H17.8114C17.9124 4.71465 18.0106 4.68202 18.0902 4.62198C18.1698 4.56193 18.2264 4.4779 18.2509 4.38325L18.6179 2.96466H22.1172C22.2974 2.96481 22.4702 3.03399 22.5976 3.15703C22.7251 3.28007 22.7967 3.44691 22.7969 3.62091V27.6834Z" fill="white"/>
<path d="M17.3594 27.0272H14.6406C14.5204 27.0272 14.4052 27.0733 14.3202 27.1553C14.2352 27.2373 14.1875 27.3486 14.1875 27.4647C14.1875 27.5807 14.2352 27.692 14.3202 27.774C14.4052 27.8561 14.5204 27.9022 14.6406 27.9022H17.3594C17.4796 27.9022 17.5948 27.8561 17.6798 27.774C17.7648 27.692 17.8125 27.5807 17.8125 27.4647C17.8125 27.3486 17.7648 27.2373 17.6798 27.1553C17.5948 27.0733 17.4796 27.0272 17.3594 27.0272Z" fill="white"/>
</svg>
